<svg xmlns="http://www.w3.org/2000/svg" xmlns:xlink="http://www.w3.org/1999/xlink" width="500" zoomAndPan="magnify" viewBox="0 0 375 374.999991" height="500" preserveAspectRatio="xMidYMid meet" version="1.0"><defs><g/><clipPath id="cf623819ff"><path d="M 0.0117188 7 L 366.761719 7 L 366.761719 256 L 0.0117188 256 Z M 0.0117188 7 " clip-rule="nonzero"/></clipPath><clipPath id="2f2b799621"><path d="M 4.035156 2 L 370.785156 2 L 370.785156 251 L 4.035156 251 Z M 4.035156 2 " clip-rule="nonzero"/></clipPath><clipPath id="7331124675"><path d="M 147.820312 54 L 231 54 L 231 120.574219 L 147.820312 120.574219 Z M 147.820312 54 " clip-rule="nonzero"/></clipPath><clipPath id="df474ef496"><path d="M 172 27 L 257.320312 27 L 257.320312 100 L 172 100 Z M 172 27 " clip-rule="nonzero"/></clipPath><clipPath id="c0352015dd"><path d="M 180.574219 51.214844 L 224.800781 51.214844 L 224.800781 95.441406 L 180.574219 95.441406 Z M 180.574219 51.214844 " clip-rule="nonzero"/></clipPath><clipPath id="5a349e1eba"><path d="M 202.6875 51.214844 C 190.472656 51.214844 180.574219 61.117188 180.574219 73.328125 C 180.574219 85.542969 190.472656 95.441406 202.6875 95.441406 C 214.898438 95.441406 224.800781 85.542969 224.800781 73.328125 C 224.800781 61.117188 214.898438 51.214844 202.6875 51.214844 Z M 202.6875 51.214844 " clip-rule="nonzero"/></clipPath><clipPath id="69aa001799"><path d="M 153.917969 56 L 228 56 L 228 115.328125 L 153.917969 115.328125 Z M 153.917969 56 " clip-rule="nonzero"/></clipPath><clipPath id="4ae2d7bc8a"><path d="M 175 32 L 251.417969 32 L 251.417969 97 L 175 97 Z M 175 32 " clip-rule="nonzero"/></clipPath><clipPath id="fa436c07ba"><path d="M 184.035156 54.679688 L 221.335938 54.679688 L 221.335938 91.976562 L 184.035156 91.976562 Z M 184.035156 54.679688 " clip-rule="nonzero"/></clipPath><clipPath id="f20e9ded61"><path d="M 202.6875 54.679688 C 192.386719 54.679688 184.035156 63.027344 184.035156 73.328125 C 184.035156 83.628906 192.386719 91.976562 202.6875 91.976562 C 212.988281 91.976562 221.335938 83.628906 221.335938 73.328125 C 221.335938 63.027344 212.988281 54.679688 202.6875 54.679688 Z M 202.6875 54.679688 " clip-rule="nonzero"/></clipPath></defs><g clip-path="url(#cf623819ff)"><path fill="#000000" d="M 366.9375 47.347656 L 366.9375 53.5625 C 366.9375 56.546875 364.550781 58.933594 361.617188 59.03125 C 360.074219 59.082031 358.535156 59.082031 356.992188 59.082031 C 352.019531 59.082031 347.097656 58.832031 342.175781 58.386719 C 323.527344 56.644531 310.699219 52.167969 294.386719 46.5 C 292.847656 45.953125 291.304688 45.40625 289.714844 44.859375 C 263.410156 35.808594 250.230469 31.234375 239.691406 28.898438 C 230.140625 26.757812 204.433594 22.085938 171.8125 24.917969 C 147.746094 27.007812 128.550781 32.476562 114.53125 36.457031 C 89.070312 43.667969 69.828125 49.734375 69.628906 49.78125 C 68.085938 50.28125 66.695312 50.726562 65.402344 51.125 C 55.207031 54.359375 50.085938 56 42.328125 57.09375 C 28.453125 59.082031 14.234375 58.136719 0.0117188 54.40625 L 0.0117188 38.894531 C 12.09375 42.074219 28.355469 42.222656 39.992188 40.582031 C 46.355469 39.6875 50.730469 38.296875 60.378906 35.261719 C 61.722656 34.863281 63.113281 34.417969 64.65625 33.921875 C 64.855469 33.871094 84.296875 27.753906 110.003906 20.445312 C 124.675781 16.21875 144.714844 10.5 170.371094 8.3125 C 205.28125 5.328125 232.976562 10.351562 243.269531 12.636719 C 254.757812 15.222656 268.230469 19.847656 295.132812 29.148438 C 296.726562 29.695312 298.316406 30.242188 299.859375 30.789062 C 315.074219 36.058594 327.058594 40.234375 343.714844 41.828125 C 349.234375 42.324219 355.351562 42.222656 361.167969 41.925781 C 364.300781 41.726562 366.9375 44.214844 366.9375 47.347656 Z M 363.257812 82.800781 C 357.789062 83.894531 352.367188 85.238281 347.097656 86.976562 C 341.378906 88.816406 335.910156 91.304688 330.289062 93.542969 C 327.207031 94.734375 325.863281 95.332031 320.59375 98.265625 C 319.449219 98.8125 318.207031 99.457031 316.914062 100.105469 C 315.871094 100.652344 314.726562 101.199219 313.53125 101.796875 C 313.085938 101.996094 305.527344 105.722656 292.101562 111.691406 C 285.386719 114.675781 281.65625 121.984375 283.300781 129.09375 C 286.730469 144.160156 296.921875 160.472656 325.765625 153.660156 C 326.910156 153.410156 327.652344 154.753906 326.859375 155.597656 C 293.839844 188.167969 287.625 210.199219 276.1875 254.105469 C 275.441406 256.941406 271.265625 256.441406 271.265625 253.507812 L 270.320312 120.890625 C 261.171875 128.945312 251.972656 137.398438 243.070312 146 C 231.585938 157.039062 224.273438 164.648438 217.214844 172.058594 C 209.15625 180.460938 201.5 188.417969 189.21875 199.707031 C 172.859375 214.671875 158.386719 226.210938 147.347656 233.070312 C 131.1875 243.164062 115.523438 250.027344 102.148438 252.960938 C 93.148438 254.949219 85.191406 255.597656 78.578125 255.597656 C 71.269531 255.597656 65.601562 254.800781 62.019531 254.054688 C 53.914062 252.414062 45.558594 250.722656 36.957031 244.160156 C 34.671875 242.417969 14.878906 226.507812 17.765625 201.644531 C 19.207031 189.3125 24.925781 179.070312 33.925781 172.753906 C 40.140625 168.378906 47.847656 165.84375 55.605469 165.542969 C 64.457031 165.246094 72.414062 167.832031 78.628906 173.101562 C 87.878906 180.910156 94.339844 195.578125 88.773438 208.40625 C 87.179688 212.085938 84.941406 214.921875 82.507812 217.210938 C 82.507812 217.210938 82.457031 217.257812 82.457031 217.257812 C 81.710938 218.003906 80.914062 218.699219 80.019531 219.246094 C 80.019531 219.246094 79.96875 219.246094 79.96875 219.296875 C 78.378906 220.390625 76.589844 221.1875 74.699219 221.632812 C 72.808594 222.082031 70.820312 222.230469 68.734375 222.03125 C 60.726562 221.136719 54.460938 214.472656 54.015625 206.46875 C 53.46875 196.820312 61.125 188.867188 70.621094 188.867188 C 71.765625 188.867188 72.910156 188.964844 74.003906 189.214844 C 72.710938 187.027344 71.070312 185.136719 69.527344 183.792969 C 61.820312 177.28125 49.4375 178.871094 41.878906 184.191406 C 36.210938 188.167969 32.53125 194.980469 31.539062 203.285156 C 29.5 220.789062 44.664062 232.625 45.3125 233.121094 C 51.328125 237.746094 57.496094 238.988281 64.65625 240.429688 C 70.421875 241.574219 82.507812 243.015625 99.015625 239.386719 C 110.851562 236.800781 124.972656 230.535156 139.789062 221.285156 C 150.082031 214.871094 163.859375 203.882812 179.621094 189.460938 C 191.554688 178.523438 198.714844 171.113281 206.96875 162.460938 C 213.78125 155.351562 221.539062 147.246094 233.226562 136.007812 C 234.21875 135.011719 235.265625 134.066406 236.257812 133.121094 C 237.003906 132.425781 236.359375 131.234375 235.363281 131.433594 C 224.074219 133.71875 214.726562 134.714844 208.710938 135.359375 C 200.207031 136.253906 192.003906 136.652344 184.144531 136.652344 C 145.90625 136.652344 115.476562 127.355469 95.980469 121.386719 C 81.5625 116.960938 61.871094 110.945312 44.515625 101.496094 L 44.21875 101.347656 C 42.777344 100.550781 40.738281 99.457031 37.804688 98.316406 C 33.527344 96.625 27.460938 94.984375 20 94.683594 C 16.71875 94.535156 13.535156 95.828125 11.25 98.214844 C 8.664062 100.949219 6.726562 104.480469 5.78125 106.371094 C 5.28125 107.316406 4.238281 107.863281 3.144531 107.714844 C 1.949219 107.515625 1.105469 106.421875 1.105469 105.175781 L 1.105469 80.414062 L 1.703125 80.414062 C 15.425781 80.414062 29.101562 79.070312 42.527344 76.1875 C 42.625 76.1875 42.726562 76.136719 42.824219 76.136719 C 47.152344 75.191406 50.035156 74.496094 77.386719 66.242188 C 93.347656 61.417969 102.148438 58.734375 107.371094 57.140625 C 113.984375 55.101562 115.773438 54.554688 120.199219 53.363281 C 142.226562 47.394531 153.316406 44.363281 169.378906 42.671875 C 178.925781 41.675781 198.515625 40.433594 222.882812 43.566406 C 240.1875 45.804688 253.214844 49.433594 263.609375 52.367188 C 276.335938 55.949219 283.945312 58.832031 290.707031 61.367188 C 294.984375 63.007812 299.011719 64.5 303.933594 66.042969 C 312.089844 68.578125 320.542969 70.46875 329.34375 71.710938 C 333.71875 72.757812 338.097656 73.652344 342.472656 74.496094 C 349.234375 75.839844 356.148438 77.03125 363.058594 78.078125 C 364.054688 78.226562 364.898438 78.921875 365.148438 79.917969 C 365.445312 81.257812 364.550781 82.550781 363.257812 82.800781 Z M 314.378906 83.199219 C 309.40625 82.105469 302.792969 79.964844 298.019531 78.472656 C 292.695312 76.832031 290.261719 76.085938 285.785156 74.398438 C 279.023438 71.8125 272.011719 69.175781 259.878906 65.792969 C 251.425781 63.457031 241.28125 60.574219 228.5 58.484375 C 232.082031 64.054688 234.121094 70.667969 234.121094 77.777344 C 234.121094 97.667969 218.007812 113.78125 198.117188 113.78125 C 178.230469 113.78125 162.117188 97.667969 162.117188 77.777344 C 162.117188 69.921875 164.652344 62.613281 168.929688 56.695312 C 154.90625 58.335938 144.265625 61.21875 123.828125 66.738281 C 119.601562 67.882812 118.058594 68.378906 111.445312 70.367188 C 106.175781 71.960938 97.425781 74.644531 81.414062 79.46875 L 55.902344 87.375 C 54.261719 87.871094 54.210938 90.160156 55.804688 90.757812 L 100.109375 107.863281 C 122.636719 114.722656 160.277344 126.261719 207.316406 121.289062 C 217.859375 120.195312 239.140625 117.90625 262.664062 108.855469 C 262.8125 108.757812 262.910156 108.609375 263.0625 108.507812 L 263.210938 108.65625 C 264.351562 108.210938 265.496094 107.761719 266.640625 107.316406 C 292.050781 96.773438 307.167969 89.316406 307.316406 89.265625 C 308.511719 88.667969 309.605469 88.121094 310.648438 87.625 C 312.089844 86.929688 313.433594 86.230469 314.726562 85.636719 C 315.769531 85.089844 315.570312 83.496094 314.378906 83.199219 Z M 314.378906 83.199219 " fill-opacity="1" fill-rule="nonzero"/></g><g clip-path="url(#2f2b799621)"><path fill="#ff0000" d="M 370.960938 42.113281 L 370.960938 48.328125 C 370.960938 51.3125 368.574219 53.699219 365.640625 53.796875 C 364.097656 53.847656 362.558594 53.847656 361.015625 53.847656 C 356.042969 53.847656 351.121094 53.597656 346.199219 53.152344 C 327.550781 51.410156 314.722656 46.9375 298.410156 41.265625 C 296.871094 40.71875 295.328125 40.171875 293.738281 39.625 C 267.433594 30.578125 254.253906 26 243.714844 23.664062 C 234.164062 21.527344 208.457031 16.851562 175.835938 19.6875 C 151.769531 21.773438 132.578125 27.246094 118.554688 31.222656 C 93.09375 38.433594 73.851562 44.5 73.652344 44.550781 C 72.109375 45.046875 70.71875 45.492188 69.425781 45.890625 C 59.230469 49.125 54.109375 50.765625 46.351562 51.859375 C 32.480469 53.847656 18.257812 52.902344 4.035156 49.171875 L 4.035156 33.660156 C 16.117188 36.839844 32.378906 36.992188 44.015625 35.351562 C 50.378906 34.453125 54.753906 33.0625 64.402344 30.027344 C 65.746094 29.632812 67.136719 29.183594 68.679688 28.6875 C 68.878906 28.636719 88.320312 22.519531 114.027344 15.210938 C 128.699219 10.984375 148.738281 5.265625 174.394531 3.078125 C 209.304688 0.09375 237 5.117188 247.292969 7.402344 C 258.78125 9.988281 272.253906 14.613281 299.15625 23.914062 C 300.75 24.460938 302.339844 25.007812 303.882812 25.554688 C 319.097656 30.824219 331.082031 35 347.738281 36.59375 C 353.257812 37.089844 359.375 36.992188 365.191406 36.691406 C 368.324219 36.492188 370.960938 38.980469 370.960938 42.113281 Z M 367.28125 77.566406 C 361.8125 78.660156 356.390625 80.003906 351.121094 81.742188 C 345.402344 83.582031 339.933594 86.070312 334.3125 88.308594 C 331.230469 89.5 329.886719 90.097656 324.617188 93.03125 C 323.472656 93.578125 322.230469 94.226562 320.9375 94.871094 C 319.894531 95.417969 318.75 95.964844 317.554688 96.5625 C 317.109375 96.761719 309.550781 100.492188 296.125 106.457031 C 289.410156 109.441406 285.683594 116.75 287.324219 123.863281 C 290.753906 138.929688 300.949219 155.238281 329.789062 148.425781 C 330.933594 148.175781 331.679688 149.519531 330.882812 150.367188 C 297.863281 182.9375 291.648438 204.964844 280.210938 248.871094 C 279.464844 251.707031 275.289062 251.210938 275.289062 248.273438 L 274.34375 115.65625 C 265.195312 123.710938 255.996094 132.164062 247.09375 140.769531 C 235.609375 151.808594 228.296875 159.414062 221.238281 166.824219 C 213.183594 175.226562 205.523438 183.183594 193.242188 194.472656 C 176.882812 209.441406 162.410156 220.976562 151.371094 227.839844 C 135.210938 237.933594 119.546875 244.792969 106.171875 247.726562 C 97.171875 249.71875 89.214844 250.363281 82.601562 250.363281 C 75.292969 250.363281 69.625 249.566406 66.042969 248.820312 C 57.9375 247.179688 49.585938 245.492188 40.980469 238.925781 C 38.695312 237.1875 18.902344 221.273438 21.789062 196.410156 C 23.230469 184.078125 28.949219 173.835938 37.949219 167.519531 C 44.164062 163.144531 51.871094 160.609375 59.628906 160.308594 C 68.480469 160.011719 76.4375 162.597656 82.652344 167.867188 C 91.902344 175.675781 98.363281 190.34375 92.796875 203.175781 C 91.203125 206.855469 88.96875 209.6875 86.53125 211.976562 C 86.53125 211.976562 86.480469 212.023438 86.480469 212.023438 C 85.734375 212.769531 84.9375 213.46875 84.042969 214.015625 C 84.042969 214.015625 83.996094 214.015625 83.996094 214.0625 C 82.402344 215.15625 80.613281 215.953125 78.722656 216.402344 C 76.832031 216.847656 74.84375 216.996094 72.757812 216.800781 C 64.75 215.902344 58.484375 209.242188 58.039062 201.234375 C 57.492188 191.589844 65.148438 183.632812 74.644531 183.632812 C 75.789062 183.632812 76.933594 183.730469 78.027344 183.980469 C 76.734375 181.792969 75.09375 179.902344 73.550781 178.558594 C 65.84375 172.046875 53.460938 173.636719 45.90625 178.957031 C 40.234375 182.9375 36.554688 189.75 35.5625 198.050781 C 33.523438 215.554688 48.6875 227.390625 49.335938 227.886719 C 55.351562 232.511719 61.519531 233.753906 68.679688 235.199219 C 74.445312 236.339844 86.53125 237.78125 103.039062 234.152344 C 114.875 231.566406 128.996094 225.300781 143.8125 216.054688 C 154.109375 209.636719 167.882812 198.648438 183.644531 184.230469 C 195.578125 173.289062 202.738281 165.878906 210.992188 157.226562 C 217.804688 150.117188 225.5625 142.011719 237.25 130.773438 C 238.242188 129.777344 239.289062 128.835938 240.28125 127.890625 C 241.027344 127.191406 240.382812 126 239.386719 126.199219 C 228.097656 128.484375 218.75 129.480469 212.734375 130.128906 C 204.230469 131.023438 196.027344 131.421875 188.167969 131.421875 C 149.929688 131.421875 119.5 122.121094 100.007812 116.152344 C 85.585938 111.730469 65.894531 105.710938 48.539062 96.265625 L 48.242188 96.113281 C 46.800781 95.320312 44.761719 94.226562 41.828125 93.082031 C 37.550781 91.390625 31.484375 89.75 24.023438 89.453125 C 20.742188 89.300781 17.5625 90.59375 15.273438 92.980469 C 12.6875 95.71875 10.75 99.246094 9.804688 101.136719 C 9.304688 102.082031 8.261719 102.628906 7.167969 102.480469 C 5.976562 102.28125 5.128906 101.1875 5.128906 99.945312 L 5.128906 75.179688 L 5.726562 75.179688 C 19.449219 75.179688 33.125 73.835938 46.550781 70.953125 C 46.652344 70.953125 46.75 70.902344 46.847656 70.902344 C 51.175781 69.960938 54.058594 69.261719 81.410156 61.007812 C 97.371094 56.183594 106.171875 53.5 111.394531 51.910156 C 118.007812 49.871094 119.796875 49.324219 124.222656 48.128906 C 146.25 42.164062 157.339844 39.128906 173.402344 37.4375 C 182.949219 36.445312 202.539062 35.199219 226.90625 38.332031 C 244.210938 40.570312 257.238281 44.199219 267.632812 47.136719 C 280.359375 50.714844 287.96875 53.597656 294.730469 56.136719 C 299.007812 57.777344 303.035156 59.269531 307.957031 60.808594 C 316.113281 63.34375 324.566406 65.234375 333.367188 66.476562 C 337.746094 67.523438 342.121094 68.417969 346.496094 69.261719 C 353.257812 70.605469 360.171875 71.800781 367.082031 72.84375 C 368.078125 72.992188 368.921875 73.6875 369.171875 74.683594 C 369.46875 76.027344 368.574219 77.320312 367.28125 77.566406 Z M 318.402344 77.964844 C 313.429688 76.871094 306.816406 74.734375 302.042969 73.242188 C 296.722656 71.601562 294.285156 70.855469 289.808594 69.164062 C 283.046875 66.578125 276.035156 63.941406 263.902344 60.5625 C 255.449219 58.222656 245.304688 55.339844 232.523438 53.25 C 236.105469 58.820312 238.144531 65.433594 238.144531 72.542969 C 238.144531 92.433594 222.03125 108.546875 202.144531 108.546875 C 182.253906 108.546875 166.140625 92.433594 166.140625 72.542969 C 166.140625 64.6875 168.675781 57.378906 172.953125 51.460938 C 158.929688 53.101562 148.289062 55.984375 127.851562 61.503906 C 123.625 62.648438 122.085938 63.148438 115.472656 65.136719 C 110.199219 66.726562 101.449219 69.410156 85.4375 74.234375 L 59.925781 82.140625 C 58.285156 82.640625 58.238281 84.925781 59.828125 85.523438 L 104.132812 102.628906 C 126.660156 109.492188 164.300781 121.027344 211.34375 116.054688 C 221.882812 114.960938 243.167969 112.671875 266.6875 103.625 C 266.835938 103.523438 266.933594 103.375 267.085938 103.273438 L 267.234375 103.425781 C 268.378906 102.976562 269.519531 102.53125 270.664062 102.082031 C 296.074219 91.539062 311.191406 84.082031 311.339844 84.03125 C 312.535156 83.433594 313.628906 82.886719 314.671875 82.390625 C 316.113281 81.695312 317.457031 81 318.75 80.402344 C 319.792969 79.855469 319.59375 78.261719 318.402344 77.964844 Z M 318.402344 77.964844 " fill-opacity="1" fill-rule="nonzero"/></g><g clip-path="url(#7331124675)"><path fill="#000000" d="M 221.335938 100.933594 C 216.058594 105.011719 209.449219 107.433594 202.273438 107.433594 C 185.007812 107.433594 171.015625 93.414062 171.015625 76.117188 L 182.277344 76.117188 L 166.3125 54.207031 L 147.851562 76.117188 L 157.949219 76.117188 C 157.949219 100.644531 177.789062 120.527344 202.273438 120.527344 C 212.796875 120.527344 222.460938 116.851562 230.066406 110.714844 Z M 221.335938 100.933594 " fill-opacity="1" fill-rule="nonzero"/></g><g clip-path="url(#df474ef496)"><path fill="#000000" d="M 172.332031 40.816406 C 182.035156 31.1875 196.027344 26.167969 210.539062 28.488281 C 234.710938 32.359375 251.179688 55.128906 247.316406 79.351562 L 257.289062 80.945312 L 235.609375 99.660156 L 223.292969 75.503906 L 234.414062 77.285156 C 237.136719 60.203125 225.523438 44.148438 208.480469 41.417969 C 197.574219 39.675781 187.089844 43.808594 180.234375 51.480469 Z M 172.332031 40.816406 " fill-opacity="1" fill-rule="nonzero"/></g><g clip-path="url(#c0352015dd)"><g clip-path="url(#5a349e1eba)"><path fill="#000000" d="M 180.574219 51.214844 L 224.800781 51.214844 L 224.800781 95.441406 L 180.574219 95.441406 Z M 180.574219 51.214844 " fill-opacity="1" fill-rule="nonzero"/></g></g><g fill="#ff0000" fill-opacity="1"><g transform="translate(0.023442, 333.42906)"><g><path d="M 8.109375 0 L 8.109375 -58.4375 L 17.890625 -58.4375 L 17.640625 -33.9375 L 39.875 -33.9375 L 39.625 -58.4375 L 49.40625 -58.4375 L 49.40625 0 L 39.625 0 L 39.875 -25.5 L 17.71875 -25.5 L 17.890625 0 Z M 8.109375 0 "/></g></g></g><g fill="#ff0000" fill-opacity="1"><g transform="translate(57.525216, 333.42906)"><g><path d="M 44.8125 -24.40625 C 44.8125 -16.050781 43.304688 -9.710938 40.296875 -5.390625 C 37.285156 -1.066406 32.195312 1.09375 25.03125 1.09375 C 17.875 1.09375 12.773438 -1.066406 9.734375 -5.390625 C 6.703125 -9.710938 5.1875 -16.050781 5.1875 -24.40625 C 5.1875 -32.769531 6.703125 -39.125 9.734375 -43.46875 C 12.773438 -47.8125 17.875 -49.984375 25.03125 -49.984375 C 32.195312 -49.984375 37.285156 -47.8125 40.296875 -43.46875 C 43.304688 -39.125 44.8125 -32.769531 44.8125 -24.40625 Z M 17.265625 -10.078125 C 18.628906 -7.765625 21.234375 -6.609375 25.078125 -6.609375 C 28.921875 -6.609375 31.507812 -7.765625 32.84375 -10.078125 C 34.1875 -12.390625 34.859375 -17.179688 34.859375 -24.453125 C 34.859375 -31.722656 34.1875 -36.5 32.84375 -38.78125 C 31.507812 -41.070312 28.921875 -42.21875 25.078125 -42.21875 C 21.234375 -42.21875 18.628906 -41.070312 17.265625 -38.78125 C 15.898438 -36.5 15.21875 -31.722656 15.21875 -24.453125 C 15.21875 -17.179688 15.898438 -12.390625 17.265625 -10.078125 Z M 17.265625 -10.078125 "/></g></g></g><g fill="#ff0000" fill-opacity="1"><g transform="translate(107.504961, 333.42906)"><g><path d="M 22.609375 -48.109375 C 25.253906 -49.359375 27.382812 -49.984375 29 -49.984375 C 30.625 -49.984375 32.101562 -49.765625 33.4375 -49.328125 L 32.6875 -40.625 C 31.289062 -40.738281 30.035156 -40.796875 28.921875 -40.796875 C 24.742188 -40.796875 20.925781 -39.566406 17.46875 -37.109375 L 17.46875 0 L 7.78125 0 L 7.78125 -48.90625 L 13.875 -48.90625 C 14.375 -46.28125 14.789062 -44.578125 15.125 -43.796875 L 15.625 -43.796875 C 17.632812 -45.421875 19.960938 -46.859375 22.609375 -48.109375 Z M 22.609375 -48.109375 "/></g></g></g><g fill="#ff0000" fill-opacity="1"><g transform="translate(142.273482, 333.42906)"><g><path d="M 6.6875 -16.640625 L 6.6875 -48.90625 L 16.390625 -48.90625 L 16.390625 -18.5625 C 16.390625 -13.207031 16.75 -10 17.46875 -8.9375 C 18.25 -8 19.671875 -7.53125 21.734375 -7.53125 C 25.078125 -7.53125 29.257812 -8.863281 34.28125 -11.53125 L 34.28125 -48.90625 L 43.96875 -48.90625 L 43.96875 0 L 37.625 0 L 36.453125 -4.84375 L 36.03125 -4.84375 C 35.976562 -4.789062 35.347656 -4.429688 34.140625 -3.765625 C 32.941406 -3.097656 32.109375 -2.648438 31.640625 -2.421875 C 31.171875 -2.203125 30.320312 -1.796875 29.09375 -1.203125 C 27.863281 -0.617188 26.832031 -0.21875 26 0 C 23.65625 0.726562 21.535156 1.09375 19.640625 1.09375 C 11.003906 1.09375 6.6875 -4.816406 6.6875 -16.640625 Z M 6.6875 -16.640625 "/></g></g></g><g fill="#ff0000" fill-opacity="1"><g transform="translate(194.008361, 333.42906)"><g><path d="M 22.578125 -6.9375 C 24.742188 -6.9375 26.382812 -7.4375 27.5 -8.4375 C 28.613281 -9.445312 29.171875 -11.066406 29.171875 -13.296875 C 29.171875 -15.523438 28.445312 -17.125 27 -18.09375 C 25.550781 -19.070312 23.847656 -19.851562 21.890625 -20.4375 C 19.941406 -21.019531 18.859375 -21.351562 18.640625 -21.4375 C 18.421875 -21.519531 17.78125 -21.726562 16.71875 -22.0625 C 15.65625 -22.40625 14.648438 -22.742188 13.703125 -23.078125 C 12.753906 -23.410156 11.539062 -23.96875 10.0625 -24.75 C 8.59375 -25.53125 7.523438 -26.363281 6.859375 -27.25 C 5.015625 -29.476562 4.09375 -32.265625 4.09375 -35.609375 C 4.09375 -40.015625 5.5 -43.507812 8.3125 -46.09375 C 11.132812 -48.6875 15.234375 -49.984375 20.609375 -49.984375 C 25.984375 -49.984375 31.265625 -49.09375 36.453125 -47.3125 L 34.9375 -39.625 C 29.144531 -41.019531 24.503906 -41.71875 21.015625 -41.71875 C 17.535156 -41.71875 15.390625 -41.253906 14.578125 -40.328125 C 13.773438 -39.410156 13.375 -38.113281 13.375 -36.4375 C 13.375 -34.769531 14.164062 -33.421875 15.75 -32.390625 C 17.34375 -31.359375 19.601562 -30.410156 22.53125 -29.546875 C 25.457031 -28.679688 27.222656 -28.148438 27.828125 -27.953125 C 28.441406 -27.765625 29.390625 -27.429688 30.671875 -26.953125 C 31.960938 -26.484375 32.867188 -26.050781 33.390625 -25.65625 C 33.921875 -25.269531 34.601562 -24.726562 35.4375 -24.03125 C 36.28125 -23.332031 36.894531 -22.566406 37.28125 -21.734375 C 38.175781 -19.722656 38.625 -17.492188 38.625 -15.046875 C 38.625 -10.140625 37.160156 -6.222656 34.234375 -3.296875 C 31.304688 -0.367188 27.164062 1.09375 21.8125 1.09375 C 19.144531 1.09375 16.316406 0.726562 13.328125 0 C 10.347656 -0.726562 7.210938 -1.816406 3.921875 -3.265625 L 6.265625 -11.125 C 12.785156 -8.332031 18.222656 -6.9375 22.578125 -6.9375 Z M 22.578125 -6.9375 "/></g></g></g><g fill="#ff0000" fill-opacity="1"><g transform="translate(236.800381, 333.42906)"><g><path d="M 9.78125 13.875 L 16.640625 -4.515625 L -0.421875 -48.90625 L 10.359375 -48.90625 L 20.734375 -14.46875 L 21.15625 -14.46875 L 31.34375 -48.90625 L 41.546875 -48.90625 L 24.40625 -2.84375 L 19.8125 13.875 Z M 9.78125 13.875 "/></g></g></g><g fill="#ff0000" fill-opacity="1"><g transform="translate(278.505876, 333.42906)"><g><path d="M 7.78125 0 L 7.78125 -48.90625 L 14.125 -48.90625 L 15.21875 -44.046875 L 15.625 -44.046875 C 22.488281 -48.003906 28.273438 -49.984375 32.984375 -49.984375 C 37.691406 -49.984375 40.894531 -48.453125 42.59375 -45.390625 C 44.289062 -42.328125 45.140625 -37.953125 45.140625 -32.265625 L 45.140625 0 L 35.4375 0 L 35.4375 -29.84375 C 35.4375 -34.800781 35.113281 -37.9375 34.46875 -39.25 C 33.832031 -40.5625 32.425781 -41.21875 30.25 -41.21875 C 28.082031 -41.21875 25.757812 -40.769531 23.28125 -39.875 C 20.800781 -38.976562 18.863281 -38.085938 17.46875 -37.203125 L 17.46875 0 Z M 7.78125 0 "/></g></g></g><g fill="#ff0000" fill-opacity="1"><g transform="translate(330.324354, 333.42906)"><g><path d="M 39.03125 -10.78125 C 39.644531 -8.882812 40.59375 -6.515625 41.875 -3.671875 C 41.375 -3.335938 40.691406 -2.90625 39.828125 -2.375 C 38.960938 -1.851562 37.132812 -1.144531 34.34375 -0.25 C 31.5625 0.644531 28.722656 1.09375 25.828125 1.09375 C 19.421875 1.09375 14.378906 -0.992188 10.703125 -5.171875 C 7.023438 -9.359375 5.1875 -15.828125 5.1875 -24.578125 C 5.1875 -34.273438 7.414062 -41.046875 11.875 -44.890625 C 15.882812 -48.285156 21.175781 -49.984375 27.75 -49.984375 C 32.101562 -49.984375 36.394531 -49.457031 40.625 -48.40625 L 39.546875 -40.796875 C 33.460938 -41.578125 28.804688 -41.96875 25.578125 -41.96875 C 22.347656 -41.96875 20.0625 -41.296875 18.71875 -39.953125 C 16.382812 -37.453125 15.21875 -32.101562 15.21875 -23.90625 C 15.21875 -15.71875 16.804688 -10.453125 19.984375 -8.109375 C 21.148438 -7.273438 22.664062 -6.859375 24.53125 -6.859375 C 26.394531 -6.859375 28.523438 -7.191406 30.921875 -7.859375 C 33.328125 -8.523438 36.03125 -9.5 39.03125 -10.78125 Z M 39.03125 -10.78125 "/></g></g></g><g clip-path="url(#69aa001799)"><path fill="#ffffff" d="M 219.402344 97.871094 C 214.699219 101.492188 208.8125 103.648438 202.421875 103.648438 C 187.042969 103.648438 174.578125 91.183594 174.578125 75.808594 L 184.609375 75.808594 L 170.390625 56.332031 L 153.945312 75.804688 L 162.9375 75.804688 C 162.9375 97.609375 180.613281 115.285156 202.421875 115.285156 C 211.792969 115.285156 220.402344 112.019531 227.175781 106.5625 Z M 219.402344 97.871094 " fill-opacity="1" fill-rule="nonzero"/></g><g clip-path="url(#4ae2d7bc8a)"><path fill="#ffffff" d="M 175.75 44.425781 C 184.390625 35.867188 196.855469 31.40625 209.785156 33.46875 C 231.316406 36.910156 245.980469 57.152344 242.542969 78.683594 L 251.421875 80.097656 L 232.113281 96.738281 L 221.144531 75.265625 L 231.046875 76.847656 C 233.472656 61.664062 223.128906 47.390625 207.949219 44.964844 C 198.234375 43.414062 188.894531 47.089844 182.789062 53.910156 Z M 175.75 44.425781 " fill-opacity="1" fill-rule="nonzero"/></g><g clip-path="url(#fa436c07ba)"><g clip-path="url(#f20e9ded61)"><path fill="#ffffff" d="M 184.035156 54.679688 L 221.335938 54.679688 L 221.335938 91.976562 L 184.035156 91.976562 Z M 184.035156 54.679688 " fill-opacity="1" fill-rule="nonzero"/></g></g></svg>